<?xml version="1.0" encoding="utf-8"?>
<!-- Generator: Adobe Illustrator 26.5.0, SVG Export Plug-In . SVG Version: 6.00 Build 0)  -->
<svg version="1.1" xmlns="http://www.w3.org/2000/svg" xmlns:xlink="http://www.w3.org/1999/xlink" x="0px" y="0px"
	 viewBox="0 0 425.2 141.73" style="enable-background:new 0 0 425.2 141.73;" xml:space="preserve">
<style type="text/css">
	.st0{display:none;}
	.st1{display:inline;fill:none;stroke:#1D1D1B;stroke-miterlimit:10;}
	.st2{fill:#003A6D;}
	.st3{fill:#2C7EE2;}
	.st4{fill:#0F47AD;}
</style>
<g id="Capa_1">
</g>
<g id="Capa_2" class="st0">
</g>
<g id="Capa_3">
</g>
<g id="Capa_4">
	<g>
		<path class="st2" d="M39.96,40.78h39.89c1.51,0,2.26,0.79,2.26,2.37v8.19c0,1.38-0.66,2.07-1.99,2.07H50.64v11.87h23.34
			c1.49,0,2.23,0.79,2.23,2.37v7.9c0,1.77-1.41,2.66-4.22,2.66H51.87l-0.24-0.25l-1,0.25v22.13c0,1.58-0.92,2.37-2.75,2.37H40.2
			c-1.99,0-2.99-1.05-2.99-3.17V44.45C37.22,42,38.13,40.78,39.96,40.78z"/>
		<path class="st2" d="M97.19,38.63h7.69c1.97,0,2.95,1.08,2.95,3.23v41.12c1.33,4.48,5.44,6.72,12.35,6.72
			c5.26,0,9.05-1.79,11.36-5.37l0.48-2.18V41.07c0-1.63,0.91-2.44,2.75-2.44h7.14c2.31,0,3.47,0.99,3.47,2.97v41.08
			c0,8.51-5.35,14.73-16.06,18.66c-3.32,0.9-6.53,1.35-9.64,1.35h-0.72c-7.89,0-14.73-2.98-20.52-8.94
			c-2.79-3.38-4.19-7.79-4.19-13.22V42.69C94.24,39.98,95.22,38.63,97.19,38.63z"/>
		<path class="st2" d="M162.31,40.78h5.7c1.76,0,3.5,1.58,5.22,4.73l23.85,30.83l0.75,0.8V43.69c0-1.94,1.16-2.91,3.47-2.91h6.97
			c1.99,0,2.99,1.32,2.99,3.97v54.78c0,2.11-0.76,3.17-2.27,3.17h-7.17c-1.12,0-2.95-1.93-5.49-5.79l-23.34-30.03v33.45
			c0,1.58-0.74,2.37-2.23,2.37h-8.96c-1.49,0-2.23-0.97-2.23-2.91V43.69C159.56,41.75,160.48,40.78,162.31,40.78z"/>
		<path class="st2" d="M221.82,40.85h8.41c1.88,0,3.1,1.31,3.67,3.93l15.82,35.85h0.24l17.5-39.27l2.23-0.51h8.13
			c1.6,0,2.6,0.7,2.99,2.11c0,0.73-8.73,20.35-26.18,58.86c-0.57,0.53-1.56,0.8-2.95,0.8h-3.19c-2.42-0.24-3.45,0-4.46-2.88
			c-15.67-34.77-23.98-53.53-24.91-56.27v-1.06C219.64,41.37,220.54,40.85,221.82,40.85z"/>
		<path class="st3" d="M333.18,102.69c-6.54,3.41-14.04-15.5-25.84-15.07c-13.49,0.49-17.19,18.46-26.35,14.2
			c-4.58-2.13,3.23-17.53,9.48-32.14c6.42-15.04,13.12-28.83,16.95-28.83c3.61,0,10.05,13.44,16.86,28.83
			C330.55,83.86,339.2,99.55,333.18,102.69z"/>
		<path class="st2" d="M346.83,38.79h8.92c1.49,0,2.23,0.79,2.23,2.37v48.57h27.01c1.99,0,2.99,1.05,2.99,3.17v6.55
			c0,2.11-1.25,3.17-3.74,3.17h-35.93c-2.47,0-3.71-0.87-3.71-2.62V41.16C344.6,39.58,345.34,38.79,346.83,38.79z"/>
	</g>
</g>
</svg>
